<?xml version="1.0" standalone="no"?>
<!DOCTYPE svg PUBLIC "-//W3C//DTD SVG 20010904//EN"
 "http://www.w3.org/TR/2001/REC-SVG-20010904/DTD/svg10.dtd">
<svg version="1.0" xmlns="http://www.w3.org/2000/svg"
 width="574.000000pt" height="452.000000pt" viewBox="0 0 574.000000 452.000000"
 preserveAspectRatio="xMidYMid meet">

<g transform="translate(0.000000,452.000000) scale(0.100000,-0.100000)"
fill="#000000" stroke="none">
<path d="M2885 4430 c-3 -5 -1 -10 4 -10 6 0 11 5 11 10 0 6 -2 10 -4 10 -3 0
-8 -4 -11 -10z"/>
<path d="M3088 4413 c12 -2 32 -2 45 0 12 2 2 4 -23 4 -25 0 -35 -2 -22 -4z"/>
<path d="M2708 4395 c-2 -2 -33 -6 -68 -9 -94 -7 -292 -44 -300 -55 -3 -6 -21
-10 -40 -10 -33 1 -69 -10 -253 -76 -105 -37 -343 -159 -339 -174 1 -7 -2 -10
-7 -7 -21 13 -205 -114 -311 -213 -30 -28 -58 -51 -63 -51 -5 0 -6 -7 -3 -16
4 -11 2 -15 -8 -11 -14 6 -87 -65 -141 -137 -17 -22 -40 -51 -53 -65 -22 -24
-22 -54 1 -76 7 -7 8 -6 4 1 -4 7 0 15 9 18 10 4 14 1 11 -6 -2 -7 4 -20 14
-28 24 -22 18 -76 -15 -116 -14 -18 -26 -39 -26 -47 0 -8 -9 -22 -20 -32 -10
-9 -24 -33 -30 -51 -7 -19 -16 -34 -21 -34 -5 0 -9 -7 -9 -15 0 -9 -6 -18 -13
-20 -6 -3 -13 -17 -14 -32 0 -15 -9 -32 -18 -39 -20 -15 -39 -87 -22 -81 7 2
11 13 9 23 -2 14 -1 16 6 6 9 -13 96 -11 189 3 13 2 25 -1 28 -6 4 -5 17 -9
30 -9 19 0 26 -7 33 -32 5 -18 24 -58 41 -88 17 -30 39 -72 47 -93 9 -21 22
-36 28 -34 6 2 27 35 46 73 43 85 65 124 106 189 53 84 78 145 65 158 -19 19
-13 34 28 72 42 40 62 52 133 79 70 26 73 40 7 34 -78 -7 -102 1 -110 40 -5
26 -4 32 10 30 9 -2 15 2 14 9 -2 7 7 17 18 23 12 7 18 18 15 26 -3 8 -1 12 4
9 15 -9 72 23 103 58 16 18 26 26 22 20 -8 -17 1 -16 31 3 14 10 23 23 20 31
-3 8 -2 12 3 9 4 -3 17 4 27 15 24 26 54 43 54 30 0 -5 -9 -13 -21 -16 -11 -4
-18 -9 -15 -12 9 -9 57 27 51 37 -4 6 -1 10 4 10 6 0 11 -4 11 -10 0 -5 5 -10
10 -10 6 0 10 7 10 15 0 8 5 14 12 12 17 -3 23 34 6 44 -9 6 -9 9 -1 9 7 0 17
-9 23 -20 6 -11 16 -20 23 -20 7 0 6 4 -3 10 -16 11 -16 11 40 14 36 2 70 16
70 28 0 6 -6 6 -15 -2 -9 -7 -15 -8 -15 -2 0 15 25 22 41 11 22 -13 32 -11 25
7 -5 12 -2 15 9 10 9 -3 13 -2 10 3 -3 5 -1 12 4 15 5 4 12 2 16 -4 3 -5 13
-10 22 -10 9 0 13 3 10 7 -4 3 1 12 11 19 22 17 38 18 24 1 -9 -10 0 -11 44
-3 30 6 54 14 54 19 0 5 -9 5 -20 2 -11 -3 -20 -4 -20 -1 0 15 77 25 117 14
33 -8 47 -8 56 1 8 8 2 11 -23 11 -29 1 -32 2 -18 11 12 7 24 6 38 -1 14 -7
46 -7 112 1 97 12 448 6 471 -8 14 -9 70 -4 77 7 3 4 14 4 25 -1 18 -7 18 -8
-5 -8 -17 -1 -21 -4 -13 -12 8 -8 17 -8 32 1 12 6 27 9 34 6 7 -2 4 -5 -5 -5
-10 -1 -18 -6 -18 -12 0 -12 40 -8 73 6 13 5 16 4 11 -8 -6 -16 -3 -17 70 -32
11 -2 28 0 38 6 13 7 24 6 40 -6 16 -10 18 -15 7 -15 -8 0 -21 6 -28 13 -11 9
-10 7 0 -10 17 -28 36 -29 44 -3 9 27 16 25 44 -9 15 -18 30 -27 39 -23 10 3
13 1 8 -6 -10 -17 0 -15 19 4 9 9 19 14 22 10 4 -3 -2 -13 -13 -22 -16 -13
-17 -15 -1 -10 9 3 17 0 17 -6 0 -7 7 -3 16 8 8 10 12 13 8 5 -5 -11 -3 -13
12 -8 18 7 18 6 2 -7 -24 -18 -23 -22 12 -35 32 -11 41 2 13 18 -16 9 -17 10
-1 11 9 0 20 -10 24 -22 9 -31 48 -55 41 -27 -1 6 4 14 12 17 8 3 11 0 7 -6
-9 -14 28 -34 48 -26 12 5 15 2 10 -10 -5 -14 -9 -14 -35 0 -16 8 -29 10 -29
5 0 -6 24 -22 53 -36 28 -15 62 -36 74 -47 13 -12 26 -18 30 -15 3 4 -2 14
-13 23 -18 14 -18 15 3 4 12 -5 28 -22 35 -37 7 -15 19 -29 27 -31 9 -3 11 0
5 9 -6 12 -5 12 8 1 8 -7 24 -10 34 -6 18 5 18 5 0 -10 -17 -14 -18 -16 -3
-16 9 0 34 -17 54 -37 28 -28 39 -48 41 -74 2 -33 0 -37 -26 -42 -16 -3 -39
-3 -51 0 -33 8 -25 -5 17 -26 20 -10 50 -30 66 -44 26 -23 28 -29 22 -66 -3
-23 -3 -41 1 -41 10 0 33 -49 33 -68 0 -7 16 -33 35 -56 19 -24 35 -49 35 -55
0 -7 17 -43 38 -79 21 -37 47 -86 57 -109 10 -24 21 -43 25 -43 4 0 13 12 21
28 8 15 29 53 46 85 18 33 33 65 33 73 0 8 4 14 9 14 5 0 11 10 13 22 2 19 13
25 67 37 51 11 65 11 71 1 6 -9 23 -11 59 -7 30 4 51 2 51 -3 0 -13 40 -13 60
0 12 8 12 11 -1 27 -9 10 -19 26 -22 36 -4 10 -11 16 -17 12 -11 -7 -25 39
-16 53 3 6 -1 13 -9 16 -9 3 -25 27 -35 52 -11 26 -33 63 -49 83 -16 20 -31
46 -35 58 -4 11 -13 27 -21 33 -8 7 -15 21 -15 32 0 19 -2 19 -35 -6 -34 -26
-34 -26 -26 -4 4 13 18 24 30 26 12 2 25 10 28 18 3 8 13 14 22 14 23 0 41 19
34 36 -3 8 1 14 11 14 23 0 20 17 -9 46 -14 14 -25 29 -25 33 0 5 -30 41 -67
80 -49 54 -68 69 -75 59 -6 -9 -8 -7 -6 7 2 12 -2 19 -10 17 -8 -1 -11 1 -9 6
9 13 -70 85 -84 76 -7 -4 -10 -3 -6 4 4 5 -13 28 -38 49 -61 54 -185 137 -193
129 -3 -4 0 -11 8 -16 8 -6 11 -10 5 -10 -21 0 -35 17 -29 33 4 12 1 17 -10
17 -9 0 -16 3 -16 8 0 4 -13 13 -30 20 -16 7 -45 24 -65 37 -19 14 -35 22 -35
18 0 -3 -8 1 -17 9 -22 18 -113 61 -130 61 -7 0 -13 4 -13 9 0 4 -5 8 -11 8
-5 0 -30 9 -55 20 -29 14 -42 25 -37 33 4 7 0 7 -10 -2 -13 -10 -20 -11 -30
-2 -8 6 -17 8 -20 4 -4 -3 -13 0 -21 6 -8 7 -25 10 -38 7 -13 -3 -16 -3 -8 1
10 4 2 10 -25 18 -26 8 -44 8 -53 2 -9 -7 -11 -6 -6 7 5 13 0 15 -25 12 -17
-2 -34 1 -37 6 -4 5 -15 8 -25 5 -11 -3 -17 -2 -14 3 2 4 -12 10 -33 13 -145
23 -180 29 -207 34 -34 6 -462 13 -467 8z m22 -85 c0 -5 -2 -10 -4 -10 -3 0
-8 5 -11 10 -3 6 -1 10 4 10 6 0 11 -4 11 -10z m170 -36 c0 -9 -44 14 -48 25
-3 8 5 7 22 -4 14 -10 26 -19 26 -21z m-274 -11 c-7 -7 -26 7 -26 19 0 6 6 6
15 -2 9 -7 13 -15 11 -17z m74 17 c0 -5 -2 -10 -4 -10 -3 0 -8 5 -11 10 -3 6
-1 10 4 10 6 0 11 -4 11 -10z m58 -17 c-1 -5 4 -21 11 -37 6 -16 9 -31 6 -34
-3 -3 -5 1 -5 8 0 10 -13 11 -51 7 -29 -4 -54 -9 -57 -12 -14 -13 20 -27 60
-24 41 4 44 2 40 -18 -3 -17 -11 -23 -32 -23 -40 0 -60 -9 -53 -26 3 -9 21
-14 54 -14 42 0 49 -3 49 -20 0 -14 -9 -21 -37 -25 -21 -3 -46 -10 -55 -15
-11 -6 -19 -6 -24 1 -3 6 -14 9 -24 6 -14 -4 -17 4 -19 57 -2 73 -11 127 -22
142 -6 7 14 11 63 12 40 1 77 7 82 12 12 12 17 13 14 3z m662 -12 c0 -11 -4
-23 -10 -26 -6 -4 -10 5 -10 19 0 14 5 26 10 26 6 0 10 -9 10 -19z m-478 -7
c4 -3 4 -13 -2 -24 -8 -14 -5 -19 12 -23 12 -4 19 -9 16 -12 -3 -4 -20 1 -37
9 -37 19 -95 22 -88 4 2 -7 12 -12 21 -12 9 1 16 -2 16 -7 0 -5 9 -9 19 -9 11
0 23 -5 26 -10 4 -6 15 -8 26 -5 11 4 19 2 19 -5 0 -6 -5 -8 -11 -4 -7 4 -9 0
-5 -12 9 -30 -16 -66 -57 -80 -31 -11 -43 -11 -72 2 -24 10 -35 20 -33 32 2 9
-2 17 -9 17 -6 0 -15 4 -20 9 -4 5 -3 6 4 2 6 -3 16 2 22 11 9 15 10 16 11 2
0 -21 76 -47 91 -32 16 16 4 30 -35 37 -18 4 -40 14 -48 24 -19 21 -31 79 -18
87 6 4 7 -2 3 -12 -6 -17 -5 -17 13 -2 10 9 26 19 34 22 16 7 87 0 102 -9z
m78 -18 c0 -20 -12 -27 -27 -15 -20 18 -16 38 7 32 11 -3 20 -11 20 -17z
m-620 -1 c-10 -13 -9 -15 9 -15 12 0 21 -6 21 -14 0 -8 4 -26 9 -39 9 -23 12
-24 50 -14 27 7 38 14 31 21 -6 6 -10 23 -10 38 0 24 4 28 30 28 30 0 33 -5
31 -50 -2 -20 0 -22 8 -10 6 9 11 10 11 3 0 -6 3 -19 7 -29 4 -12 3 -15 -5
-10 -8 5 -12 -1 -12 -16 0 -14 3 -18 8 -11 4 6 8 -8 9 -32 1 -36 -2 -44 -20
-49 -25 -6 -37 8 -37 47 0 28 -1 29 -42 22 -24 -4 -44 -8 -45 -9 -1 -1 2 -19
8 -41 8 -28 13 -35 20 -24 5 8 9 9 9 3 0 -6 -7 -17 -15 -24 -9 -8 -15 -8 -15
-2 0 7 -10 8 -30 2 -28 -8 -29 -7 -24 18 3 15 -3 64 -14 108 -19 80 -16 114
10 114 7 0 6 -5 -2 -15z m970 -5 c8 -5 11 -10 5 -10 -5 0 -17 5 -25 10 -8 5
-10 10 -5 10 6 0 17 -5 25 -10z m-300 -15 c0 -8 -4 -15 -10 -15 -5 0 -10 7
-10 15 0 8 5 15 10 15 6 0 10 -7 10 -15z m266 0 c19 -8 41 -21 49 -29 13 -13
11 -15 -16 -21 -18 -4 -35 -3 -42 4 -15 15 -57 14 -57 -1 0 -7 16 -22 37 -33
52 -29 66 -53 49 -87 -8 -15 -13 -28 -11 -30 12 -11 -98 3 -124 17 -35 17 -35
19 -21 46 10 17 13 17 33 5 12 -7 35 -17 50 -20 39 -9 31 12 -12 36 -54 31
-62 42 -50 76 9 28 38 50 67 51 7 1 28 -6 48 -14z m164 -17 c0 -5 -7 -3 -15 6
-8 8 -15 18 -15 22 0 3 7 1 15 -6 8 -7 15 -17 15 -22z m-1230 12 c0 -5 -5 -10
-11 -10 -5 0 -7 5 -4 10 3 6 8 10 11 10 2 0 4 -4 4 -10z m-314 -15 c-8 -8 -18
-15 -22 -15 -3 0 -1 7 6 15 7 8 17 15 22 15 5 0 3 -7 -6 -15z m254 12 c0 -2
-10 -12 -22 -23 l-23 -19 19 23 c18 21 26 27 26 19z m1265 -17 c4 -6 2 -16 -3
-23 -14 -18 -35 -115 -28 -133 4 -10 16 -14 33 -12 25 3 30 11 49 68 17 53 24
64 40 62 27 -5 27 -5 13 -68 -18 -79 -53 -118 -104 -116 -20 1 -43 6 -51 13
-7 6 -19 7 -25 3 -7 -4 -9 -3 -5 4 3 6 1 22 -5 36 -12 25 -11 31 18 139 3 10
14 22 26 27 30 12 35 12 42 0z m-1141 -10 c19 -7 26 -6 26 2 0 6 3 9 6 6 3 -4
-2 -18 -11 -32 -14 -20 -22 -24 -46 -19 -52 10 -85 -39 -59 -88 14 -26 71 -26
95 1 16 17 19 18 33 4 12 -13 13 -20 4 -34 -9 -14 -8 -20 1 -23 7 -3 3 -5 -8
-5 -11 0 -35 -6 -53 -13 -29 -12 -37 -12 -70 6 -105 57 -73 188 50 204 4 1 18
-3 32 -9z m171 0 c3 -5 1 -10 -4 -10 -6 0 -11 5 -11 10 0 6 2 10 4 10 3 0 8
-4 11 -10z m435 0 c0 -5 -2 -10 -4 -10 -3 0 -8 5 -11 10 -3 6 -1 10 4 10 6 0
11 -4 11 -10z m-935 -16 c-17 -17 -22 -17 -28 -1 -3 7 5 13 19 13 20 2 21 0 9
-12z m1579 7 c4 -5 -3 -7 -14 -4 -13 4 -26 -1 -34 -12 -12 -17 -13 -17 -18 1
-4 16 1 19 28 21 18 2 35 -1 38 -6z m-544 -11 c0 -5 -4 -10 -10 -10 -5 0 -10
5 -10 10 0 6 5 10 10 10 6 0 10 -4 10 -10z m71 -6 c17 -21 0 -49 -31 -49 -31
0 -48 28 -31 49 8 9 21 16 31 16 10 0 23 -7 31 -16z m41 -16 c-6 -6 -15 -8
-19 -4 -4 4 -1 11 7 16 19 12 27 3 12 -12z m-1102 -2 c0 -2 -7 -7 -16 -10 -8
-3 -12 -2 -9 4 6 10 25 14 25 6z m116 -86 c18 -47 34 -90 34 -96 0 -18 -31
-26 -46 -13 -8 6 -21 9 -29 5 -9 -3 -13 -2 -10 4 3 5 -7 15 -22 22 -15 7 -31
17 -35 23 -12 17 -20 -2 -9 -22 6 -10 17 -35 25 -55 13 -32 13 -36 0 -31 -22
8 -47 -16 -33 -34 10 -11 8 -12 -5 -7 -12 4 -15 13 -10 27 6 20 6 20 -10 4
-21 -20 -19 -20 -49 -6 -18 8 -32 7 -58 -4 -33 -13 -35 -17 -31 -53 2 -22 0
-34 -5 -27 -6 8 -25 2 -68 -23 -33 -19 -59 -38 -58 -43 2 -6 -6 -9 -17 -8 -11
1 -20 4 -20 8 0 17 -99 169 -104 160 -4 -5 -2 -12 4 -16 5 -3 10 -11 10 -18 0
-6 -7 -1 -16 11 -8 12 -13 26 -10 31 4 5 0 11 -6 14 -7 2 -9 8 -5 13 4 5 12 2
16 -5 6 -9 18 -11 40 -6 36 8 74 -2 65 -17 -4 -6 -9 -5 -15 3 -4 7 -11 10 -14
7 -4 -4 -1 -16 7 -27 8 -12 17 -19 20 -16 3 3 13 -5 24 -17 10 -13 12 -17 4
-10 -24 21 -31 13 -13 -15 9 -16 18 -29 19 -31 5 -9 84 44 85 57 0 9 1 52 2
96 2 104 13 106 113 25 42 -34 77 -60 79 -58 9 8 -8 47 -17 42 -6 -4 -8 1 -4
14 4 11 2 23 -4 27 -5 3 -10 15 -10 26 0 10 -4 19 -10 19 -5 0 -10 9 -10 21 0
13 -4 18 -12 13 -9 -5 -10 -4 -3 3 19 19 62 24 75 8 11 -13 14 -13 26 2 12 17
13 17 8 -2 -3 -15 4 -25 27 -38 39 -22 44 -18 24 19 -25 48 -16 88 19 80 4 -1
23 -40 42 -86z m-171 69 c11 -17 -1 -21 -15 -4 -8 9 -8 15 -2 15 6 0 14 -5 17
-11z m1025 -10 c0 -6 -4 -7 -10 -4 -5 3 -10 11 -10 16 0 6 5 7 10 4 6 -3 10
-11 10 -16z m606 12 c-8 -12 18 -21 60 -21 39 0 74 -15 87 -37 5 -7 12 -11 16
-8 5 2 15 -3 22 -13 13 -15 12 -16 -3 -3 -16 12 -18 11 -18 -2 0 -26 -37 -30
-59 -8 -33 33 -76 25 -92 -17 -13 -35 12 -72 49 -72 31 1 67 24 58 39 -4 5 -1
13 5 17 8 4 9 3 5 -4 -4 -7 -2 -12 5 -12 7 0 3 -10 -9 -23 -14 -15 -19 -30
-15 -45 5 -20 2 -22 -37 -22 -27 0 -53 8 -73 22 -18 13 -39 22 -47 21 -8 -1
-10 0 -4 3 7 3 10 22 6 50 -3 34 0 49 13 64 15 17 16 22 4 37 -13 16 -12 17 4
4 13 -10 21 -11 28 -4 8 8 5 13 -10 18 -21 6 -20 25 0 25 6 0 8 -4 5 -9z m109
-1 c3 -5 1 -10 -4 -10 -6 0 -11 5 -11 10 0 6 2 10 4 10 3 0 8 -4 11 -10z m53
-2 c8 -10 4 -13 -13 -14 -19 -2 -21 1 -12 12 15 16 13 16 25 2z m-311 -20 c-3
-8 -6 -5 -6 6 -1 11 2 17 5 13 3 -3 4 -12 1 -19z m-1727 -8 c0 -5 -5 -10 -11
-10 -5 0 -7 5 -4 10 3 6 8 10 11 10 2 0 4 -4 4 -10z m584 -30 c-6 -6 -10 -3
-10 10 0 13 4 16 10 10 7 -7 7 -13 0 -20z m150 14 c3 -8 2 -12 -4 -9 -6 3 -10
10 -10 16 0 14 7 11 14 -7z m-634 -3 c0 -6 -4 -12 -8 -15 -5 -3 -9 1 -9 9 0 8
4 15 9 15 4 0 8 -4 8 -9z m1330 -23 c0 -19 -16 -5 -17 14 -2 18 0 20 7 8 5 -8
10 -18 10 -22z m873 19 c5 -14 -36 -18 -49 -4 -5 4 -1 5 8 2 9 -4 19 -2 23 4
8 14 12 14 18 -2z m-1518 -25 c-8 -8 -25 10 -19 20 4 6 9 5 15 -3 4 -7 6 -15
4 -17z m360 -2 c-3 -5 -12 -10 -18 -10 -7 0 -6 4 3 10 19 12 23 12 15 0z
m1040 -9 c-3 -6 -11 -11 -17 -11 -6 0 -6 6 2 15 14 17 26 13 15 -4z m-697 -16
c2 -2 -1 -6 -6 -9 -5 -3 -18 4 -28 16 -19 21 -19 21 6 8 14 -7 26 -14 28 -15z
m472 15 c0 -5 -4 -10 -10 -10 -5 0 -10 5 -10 10 0 6 5 10 10 10 6 0 10 -4 10
-10z m-1204 -28 c-17 -16 -18 -16 -5 5 7 12 15 20 18 17 3 -2 -3 -12 -13 -22z
m1174 8 c0 -5 -4 -10 -10 -10 -5 0 -10 5 -10 10 0 6 5 10 10 10 6 0 10 -4 10
-10z m245 -12 c40 -26 61 -75 49 -116 -4 -15 -7 -30 -6 -34 3 -15 -84 -47
-113 -41 -39 7 -105 70 -105 100 0 22 21 64 45 89 28 30 85 31 130 2z m-595 8
c0 -2 -7 -7 -16 -10 -8 -3 -12 -2 -9 4 6 10 25 14 25 6z m375 -15 c-3 -6 -11
-11 -16 -11 -5 0 -4 6 3 14 14 16 24 13 13 -3z m-1260 -1 c3 -5 1 -10 -4 -10
-6 0 -11 5 -11 10 0 6 2 10 4 10 3 0 8 -4 11 -10z m-25 -4 c0 -3 -4 -8 -10
-11 -5 -3 -10 -1 -10 4 0 6 5 11 10 11 6 0 10 -2 10 -4z m-325 -34 c-3 -3 -11
0 -18 7 -9 10 -8 11 6 5 10 -3 15 -9 12 -12z m1585 8 c0 -5 -2 -10 -4 -10 -3
0 -8 5 -11 10 -3 6 -1 10 4 10 6 0 11 -4 11 -10z m325 -20 c10 -11 13 -20 7
-20 -6 0 -16 9 -22 20 -6 11 -9 20 -7 20 2 0 12 -9 22 -20z m-1874 -33 c-8 -8
-11 -7 -11 4 0 20 13 34 18 19 3 -7 -1 -17 -7 -23z m667 18 c-2 -1 -37 -5 -78
-8 -60 -5 -72 -4 -59 6 13 10 149 12 137 2z m137 10 c-26 -9 -105 -12 -105 -4
0 5 26 9 58 8 31 0 53 -2 47 -4z m420 -5 c-3 -5 -12 -10 -18 -10 -7 0 -6 4 3
10 19 12 23 12 15 0z m761 -5 c9 -8 12 -15 7 -15 -4 0 -1 -5 7 -10 8 -5 11
-10 5 -10 -5 0 -21 12 -34 25 -24 26 -10 36 15 10z m-2600 -10 c-3 -9 0 -15 8
-15 8 0 16 6 19 13 2 6 7 9 11 6 11 -10 -29 -39 -42 -30 -11 7 -7 41 5 41 3 0
3 -7 -1 -15z m1114 -5 c-24 -15 -36 -11 -14 4 10 8 21 12 24 10 2 -3 -2 -9
-10 -14z m463 9 c-7 -7 -29 -7 -69 -1 l-59 10 70 1 c49 1 66 -2 58 -10z m437
-9 c13 -25 -5 -27 -19 -2 -9 15 -10 14 -11 -7 0 -19 -3 -22 -12 -13 -8 8 -8
15 2 27 17 20 27 19 40 -5z m-350 0 c12 -8 11 -10 -7 -10 -13 0 -23 5 -23 10
0 13 11 13 30 0z m939 -26 c18 -15 31 -20 31 -13 0 7 2 10 5 7 8 -8 -13 -58
-24 -58 -6 0 -22 11 -37 25 -48 45 -72 29 -31 -22 13 -15 31 -40 40 -55 16
-26 16 -28 1 -28 -16 0 -16 -2 -1 -17 13 -15 13 -21 3 -35 -7 -10 -17 -18 -21
-18 -5 0 0 9 9 19 21 23 3 33 -31 18 -16 -7 -31 -7 -49 2 -14 6 -31 8 -37 5
-7 -4 -9 -4 -5 1 4 4 -4 21 -18 38 -19 23 -22 32 -13 43 10 12 8 13 -7 8 -14
-4 -15 -3 -5 4 17 12 51 4 51 -13 0 -7 11 -20 25 -29 29 -19 53 -12 34 10 -6
7 -15 11 -20 8 -5 -3 -6 1 -3 9 3 8 -2 20 -11 27 -8 7 -15 23 -15 36 0 56 76
73 129 28z m-1714 6 c3 -5 1 -10 -4 -10 -6 0 -11 5 -11 10 0 6 2 10 4 10 3 0
8 -4 11 -10z m1205 6 c0 -2 -8 -10 -17 -17 -16 -13 -17 -12 -4 4 13 16 21 21
21 13z m-1534 -50 c2 -14 1 -26 -4 -26 -4 0 -9 14 -10 32 -3 37 7 33 14 -6z
m1586 12 c-7 -7 -12 -8 -12 -2 0 6 3 14 7 17 3 4 9 5 12 2 2 -3 -1 -11 -7 -17z
m-252 2 c0 -5 -7 -7 -15 -4 -8 4 -15 8 -15 10 0 2 7 4 15 4 8 0 15 -4 15 -10z
m358 -26 c-4 -3 -12 5 -18 18 -12 22 -12 22 6 6 10 -10 15 -20 12 -24z m-1808
4 c0 -19 -2 -20 -10 -8 -13 19 -13 30 0 30 6 0 10 -10 10 -22z m1500 18 c0
-11 -19 -15 -25 -6 -3 5 1 10 9 10 9 0 16 -2 16 -4z m633 -31 c10 -14 14 -25
10 -25 -4 0 -16 12 -26 25 -10 14 -14 25 -10 25 4 0 16 -12 26 -25z m-438 5
c3 -5 1 -10 -4 -10 -6 0 -11 5 -11 10 0 6 2 10 4 10 3 0 8 -4 11 -10z m-2025
-10 c-8 -5 -12 -10 -10 -12 3 -2 14 -8 24 -14 11 -6 21 -17 24 -25 2 -9 -1 -8
-11 4 -8 9 -19 17 -25 17 -15 0 -25 18 -17 30 3 6 12 10 18 10 7 0 6 -4 -3
-10z m2225 -30 c3 -5 1 -10 -4 -10 -6 0 -11 5 -11 10 0 6 2 10 4 10 3 0 8 -4
11 -10z m-1705 -10 c8 -5 11 -10 5 -10 -5 0 -17 5 -25 10 -8 5 -10 10 -5 10 6
0 17 -5 25 -10z m2010 0 c0 -5 -2 -10 -4 -10 -3 0 -8 5 -11 10 -3 6 -1 10 4
10 6 0 11 -4 11 -10z m-2350 -39 c0 -5 -7 -12 -16 -15 -14 -5 -15 -4 -4 9 14
17 20 19 20 6z m2150 -6 c0 -12 -19 -12 -23 0 -4 9 -1 12 9 8 7 -3 14 -7 14
-8z m-2270 -5 c0 -5 -4 -10 -10 -10 -5 0 -10 5 -10 10 0 6 5 10 10 10 6 0 10
-4 10 -10z m2215 0 c-3 -5 -11 -10 -16 -10 -6 0 -7 5 -4 10 3 6 11 10 16 10 6
0 7 -4 4 -10z m-2071 -8 c3 -5 -1 -9 -9 -9 -8 0 -12 4 -9 9 3 4 7 8 9 8 2 0 6
-4 9 -8z m-159 -42 c3 -5 1 -10 -4 -10 -6 0 -11 5 -11 10 0 6 2 10 4 10 3 0 8
-4 11 -10z m2902 -32 c8 -9 12 -21 9 -27 -4 -5 -2 -12 4 -16 20 -12 10 -26
-11 -15 -17 10 -18 14 -8 27 11 12 10 17 -4 28 -9 7 -17 21 -16 31 0 14 2 15
6 4 3 -8 12 -23 20 -32z m-3347 -11 c0 -5 -4 -5 -10 -2 -5 3 -10 14 -10 23 0
15 2 15 10 2 5 -8 10 -19 10 -23z m2686 -4 c-8 -9 -37 18 -30 28 3 5 12 2 21
-6 8 -9 13 -19 9 -22z m93 -24 c-15 -9 -32 -2 -24 11 3 5 13 6 21 3 12 -4 13
-8 3 -14z m-2854 -48 c-6 -5 -25 10 -25 20 0 5 6 4 14 -3 8 -7 12 -15 11 -17z
m655 24 c0 -2 -9 -9 -20 -15 -12 -6 -20 -7 -20 -1 0 5 8 12 18 14 9 3 18 5 20
6 1 0 2 -1 2 -4z m-163 -21 c-3 -3 -12 -4 -19 -1 -8 3 -5 6 6 6 11 1 17 -2 13
-5z m-461 -40 c-6 -7 -15 -9 -21 -6 -5 3 -4 7 2 9 7 3 9 12 6 21 -6 14 -5 15
9 2 11 -10 12 -17 4 -26z m89 6 c3 -5 1 -10 -4 -10 -6 0 -11 5 -11 10 0 6 2
10 4 10 3 0 8 -4 11 -10z m3365 0 c-13 -8 -13 -10 1 -10 9 0 16 -7 16 -15 0
-19 -2 -19 -21 1 -17 16 -13 34 7 34 7 0 6 -4 -3 -10z m-3432 -70 c-7 -10 -14
-17 -17 -15 -4 4 18 35 25 35 2 0 -1 -9 -8 -20z m442 -13 c0 -2 -10 -13 -23
-25 -21 -20 -23 -20 -23 -3 0 10 6 17 12 14 7 -2 15 0 19 6 6 10 15 15 15 8z
m-405 -27 c-3 -5 9 -23 28 -40 19 -16 56 -50 83 -74 29 -27 51 -41 55 -34 4 7
9 7 13 -1 4 -6 2 -11 -4 -11 -6 0 -8 -6 -4 -12 9 -16 -24 12 -97 80 -31 29
-64 59 -74 66 -15 11 -14 36 1 36 3 0 2 -4 -1 -10z m2935 0 c0 -5 5 -10 11
-10 5 0 7 5 4 10 -3 6 -2 10 3 10 6 0 13 -7 16 -16 3 -8 2 -12 -4 -9 -6 3 -10
1 -10 -4 0 -6 3 -11 8 -11 11 0 57 -44 60 -57 3 -19 1 -17 -58 42 -30 30 -49
55 -42 55 7 0 12 -4 12 -10z m328 -63 c-19 -18 -62 -58 -96 -90 -40 -38 -68
-57 -79 -54 -14 3 -12 6 10 15 16 7 56 39 89 72 34 33 66 60 71 60 6 0 8 3 4
6 -8 8 16 33 26 27 5 -3 -7 -19 -25 -36z m-2938 3 c-26 -36 -47 -51 -31 -22
12 22 39 52 47 52 3 0 -4 -13 -16 -30z m2780 -56 c0 -8 -4 -12 -10 -9 -5 3
-10 13 -10 21 0 8 5 12 10 9 6 -3 10 -13 10 -21z m-37 -19 c-3 -9 -8 -14 -10
-11 -3 3 -2 9 2 15 9 16 15 13 8 -4z m-2849 -66 c4 6 13 11 19 11 7 0 3 -7 -7
-15 -20 -15 -36 -12 -36 8 0 8 3 8 9 -2 6 -9 11 -10 15 -2z"/>
<path d="M1870 3915 c0 -27 1 -28 24 -19 21 8 20 17 -4 32 -18 11 -20 10 -20
-13z"/>
<path d="M3827 3942 c-36 -39 -7 -102 45 -102 24 0 58 35 58 60 0 27 -35 60
-63 60 -13 0 -31 -8 -40 -18z m67 -71 c-9 -9 -54 -12 -54 -4 0 5 13 8 30 8 16
1 27 -1 24 -4z"/>
<path d="M3355 4380 c3 -5 8 -10 11 -10 2 0 4 5 4 10 0 6 -5 10 -11 10 -5 0
-7 -4 -4 -10z"/>
<path d="M2370 4369 c0 -5 5 -7 10 -4 6 3 10 8 10 11 0 2 -4 4 -10 4 -5 0 -10
-5 -10 -11z"/>
<path d="M1795 4160 c-3 -5 -1 -10 4 -10 6 0 11 5 11 10 0 6 -2 10 -4 10 -3 0
-8 -4 -11 -10z"/>
<path d="M4500 3796 c0 -2 8 -10 18 -17 15 -13 16 -12 3 4 -13 16 -21 21 -21
13z"/>
<path d="M4600 3691 c0 -5 5 -13 10 -16 6 -3 10 -2 10 4 0 5 -4 13 -10 16 -5
3 -10 2 -10 -4z"/>
<path d="M2845 3640 c4 -6 11 -8 16 -5 14 9 11 15 -7 15 -8 0 -12 -5 -9 -10z"/>
<path d="M2960 3640 c0 -5 5 -10 10 -10 6 0 10 5 10 10 0 6 -4 10 -10 10 -5 0
-10 -4 -10 -10z"/>
<path d="M2790 3594 c0 -8 5 -12 10 -9 6 4 8 11 5 16 -9 14 -15 11 -15 -7z"/>
<path d="M2900 3600 c0 -5 5 -10 10 -10 6 0 10 5 10 10 0 6 -4 10 -10 10 -5 0
-10 -4 -10 -10z"/>
<path d="M3010 3600 c0 -5 5 -10 10 -10 6 0 10 5 10 10 0 6 -4 10 -10 10 -5 0
-10 -4 -10 -10z"/>
<path d="M4070 3490 c0 -5 5 -10 11 -10 5 0 7 5 4 10 -3 6 -8 10 -11 10 -2 0
-4 -4 -4 -10z"/>
<path d="M482 2862 c-38 -25 -44 -212 -6 -226 27 -10 43 6 53 55 15 71 14 131
-5 157 -16 24 -22 26 -42 14z"/>
<path d="M5217 2852 c-31 -34 -17 -202 18 -216 29 -11 43 5 49 56 9 63 -2 138
-22 161 -19 21 -25 21 -45 -1z"/>
<path d="M778 2764 c-159 -85 -283 -265 -364 -529 -28 -90 -27 -275 2 -329 43
-83 119 -105 227 -66 76 28 133 68 215 154 67 70 82 78 82 46 0 -48 55 -100
106 -100 33 0 124 53 163 95 23 25 43 45 45 45 2 0 2 -26 -1 -58 -11 -122 52
-90 150 78 50 86 97 147 97 124 0 -5 -9 -36 -20 -68 -36 -107 -24 -166 35
-166 42 0 84 34 130 106 19 30 36 54 37 54 2 0 3 -48 3 -107 0 -122 22 -203
55 -203 16 0 18 11 18 113 0 130 14 199 74 354 56 145 75 176 102 169 12 -4
51 -9 87 -13 59 -5 69 -3 88 16 24 24 27 53 6 71 -8 6 -41 14 -75 17 -40 4
-60 10 -60 19 0 7 5 16 10 19 16 10 12 63 -7 73 -26 15 -58 -5 -98 -64 -31
-44 -45 -56 -88 -70 -60 -19 -117 -58 -117 -80 0 -7 1 -14 3 -14 1 0 26 7 55
14 28 8 52 11 52 8 0 -16 -71 -192 -91 -228 -29 -49 -100 -143 -128 -168 -21
-19 -21 -19 -21 1 0 12 16 62 35 112 40 104 43 133 15 161 -29 29 -69 25 -112
-10 l-36 -29 -6 29 c-4 23 -11 30 -29 30 -33 0 -47 -14 -112 -113 -71 -108
-160 -203 -199 -213 -24 -6 -33 -3 -48 16 -19 23 -24 66 -10 87 6 10 15 10 38
1 61 -23 133 23 178 114 34 68 34 117 0 157 -33 39 -66 40 -125 3 -64 -41
-123 -113 -170 -208 -73 -148 -214 -276 -332 -303 -67 -15 -100 -3 -128 44
-38 65 -10 277 55 419 80 174 214 313 294 304 21 -2 28 -9 30 -31 4 -33 -29
-148 -64 -224 -35 -77 -57 -151 -50 -168 8 -23 44 -18 72 10 51 51 154 329
154 419 0 41 -5 53 -34 82 -47 47 -97 46 -188 -2z m386 -482 c-19 -48 -48 -76
-68 -69 -24 10 -20 24 25 72 48 52 66 50 43 -3z"/>
<path d="M195 2743 c-20 -19 -10 -36 61 -106 42 -42 63 -57 84 -57 57 0 40 51
-39 122 -58 52 -85 63 -106 41z"/>
<path d="M3092 2748 c-7 -7 -12 -38 -12 -69 0 -151 -86 -387 -226 -620 l-63
-106 -70 -27 c-39 -15 -82 -36 -96 -47 -28 -23 -33 -60 -9 -80 13 -11 24 -10
63 5 221 86 355 115 469 101 41 -5 60 -14 88 -41 47 -44 58 -43 51 4 -4 25
-18 48 -44 73 l-38 35 45 62 c59 80 64 84 57 44 -9 -43 15 -99 47 -113 20 -10
34 -9 69 5 25 9 53 26 62 36 25 28 35 25 29 -7 -7 -39 8 -57 39 -49 31 7 52
34 119 146 46 79 87 134 94 127 2 -2 -6 -31 -16 -66 -36 -115 -24 -171 37
-171 31 0 44 8 85 51 l48 51 0 -29 c0 -38 37 -94 73 -111 23 -11 36 -11 84 3
46 14 68 28 115 78 l59 60 -6 -49 c-6 -39 -4 -53 9 -63 31 -26 67 2 109 87 46
91 98 175 104 168 3 -3 -3 -28 -12 -57 -22 -64 -24 -151 -6 -173 29 -35 96
-11 141 49 29 38 37 37 38 -4 1 -48 28 -88 67 -101 77 -26 185 43 275 176 l35
52 44 -50 44 -49 -30 -32 c-74 -79 -104 -158 -70 -186 45 -37 128 -19 181 39
48 53 63 108 47 168 -14 54 -21 47 131 148 106 71 113 77 104 100 -7 18 -42 0
-189 -98 l-88 -59 -22 27 c-12 15 -27 35 -34 43 -25 32 -15 77 24 111 l37 33
9 -26 c16 -50 83 -34 105 26 35 97 -67 139 -170 70 -47 -31 -118 -119 -118
-145 0 -21 -80 -140 -129 -191 -38 -41 -80 -67 -105 -67 -28 0 -49 45 -41 90
6 38 8 40 24 26 56 -51 166 21 206 133 23 66 19 98 -14 132 -36 36 -60 36
-122 3 -57 -31 -110 -91 -170 -193 -47 -78 -114 -161 -131 -161 -16 0 -1 63
33 135 16 35 29 77 29 94 0 30 -29 71 -50 71 -15 0 -63 -23 -82 -38 -10 -9
-18 -12 -18 -8 0 13 89 193 124 250 40 67 47 106 17 106 -46 0 -130 -112 -208
-277 -78 -165 -212 -343 -268 -357 -45 -11 -65 8 -65 65 0 51 11 79 59 156 30
50 48 55 53 16 6 -58 75 -35 104 34 21 48 17 86 -9 111 -32 30 -64 28 -127
-11 -56 -33 -99 -84 -190 -227 -25 -39 -60 -85 -77 -102 -31 -30 -33 -31 -33
-10 0 13 13 57 30 100 43 112 46 132 20 165 -12 15 -30 27 -41 27 -25 0 -71
-23 -88 -44 -18 -22 -30 -20 -24 3 6 24 -22 52 -45 44 -33 -12 -46 -29 -84
-110 -39 -82 -127 -193 -154 -193 -10 0 -14 12 -14 39 0 37 33 111 96 218 37
63 -24 99 -75 44 -25 -26 -30 -28 -43 -15 -8 8 -30 17 -49 20 -68 11 -166 -83
-231 -223 -17 -37 -33 -83 -35 -103 l-5 -37 -66 -6 c-36 -4 -67 -5 -69 -3 -2
2 16 41 39 87 74 144 136 311 158 428 26 140 -2 275 -48 229z m1768 -442 c0
-33 -41 -90 -68 -94 -29 -4 -28 16 1 54 51 69 67 78 67 40z m-1532 -68 c3 -16
-93 -147 -118 -163 -26 -16 3 65 48 133 35 53 63 65 70 30z m1802 -236 c0 -38
-26 -72 -56 -72 -31 0 -30 4 9 56 38 51 47 54 47 16z"/>
<path d="M5494 2747 c-75 -44 -142 -122 -130 -152 3 -9 18 -15 34 -15 22 0 44
15 90 62 63 62 78 100 46 112 -19 7 -15 8 -40 -7z"/>
<path d="M135 2495 c-22 -8 -41 -15 -42 -15 -12 -1 1 -32 16 -40 26 -13 150
-13 190 1 39 14 42 45 5 59 -37 14 -122 11 -169 -5z"/>
<path d="M5418 2493 c-16 -17 -16 -22 -4 -39 12 -16 29 -20 104 -22 91 -4 132
6 132 32 0 22 -52 39 -135 44 -70 4 -82 2 -97 -15z"/>
<path d="M2283 2448 c-12 -13 -31 -45 -43 -73 -31 -72 -144 -237 -195 -284
-58 -53 -92 -62 -118 -30 -27 34 -14 120 15 91 7 -7 27 -12 44 -12 71 0 160
107 172 205 3 35 0 45 -25 72 -27 28 -33 30 -70 24 -61 -12 -107 -45 -161
-117 -84 -113 -120 -271 -77 -337 45 -69 152 -52 243 40 30 30 55 53 57 51 1
-2 -1 -28 -5 -58 -6 -41 -4 -61 6 -78 23 -36 47 -13 104 96 54 106 144 232
165 232 7 0 31 -18 53 -40 58 -59 104 -54 169 19 30 33 44 71 26 71 -4 0 -21
-14 -39 -31 -32 -31 -32 -31 -51 -12 -10 11 -25 34 -35 51 -37 69 -101 78
-158 20 -17 -17 -33 -28 -35 -26 -3 2 8 28 23 56 21 41 25 55 16 69 -17 27
-56 28 -81 1z m-247 -150 c-8 -43 -38 -82 -65 -86 -31 -5 -26 18 14 72 43 55
60 60 51 14z"/>
<path d="M4385 1708 c-10 -24 -36 -73 -57 -110 -21 -36 -38 -72 -38 -79 0 -6
-16 -31 -35 -55 -19 -23 -35 -49 -35 -56 0 -19 -23 -68 -32 -68 -5 0 -8 -7 -8
-15 0 -9 9 -15 21 -15 31 0 21 -38 -16 -58 -16 -9 -32 -20 -35 -24 -9 -12
-143 -78 -158 -78 -7 0 -10 -4 -7 -10 3 -5 37 -10 76 -10 62 0 69 -2 69 -19 0
-11 5 -23 10 -26 6 -4 8 -11 4 -16 -3 -5 -9 -7 -14 -4 -5 3 -14 -4 -20 -15 -6
-11 -17 -20 -25 -20 -7 0 -24 -15 -36 -32 -28 -39 -38 -49 -67 -65 -48 -28
-31 -3 21 30 16 10 27 21 24 23 -7 8 -87 -49 -87 -62 0 -7 -10 -14 -22 -16
-12 -2 -23 -9 -24 -16 -1 -7 0 -8 3 -2 2 5 9 10 14 10 5 0 4 -9 -3 -20 -8 -12
-16 -16 -22 -10 -5 5 -16 5 -27 -1 -10 -5 -23 -8 -30 -7 -6 2 -14 -3 -16 -10
-3 -8 1 -10 13 -5 11 4 15 3 11 -4 -4 -6 -1 -13 5 -16 7 -2 -7 -3 -32 -1 -39
3 -47 0 -55 -18 -6 -12 -17 -23 -25 -25 -10 -3 -9 -1 3 7 28 18 20 30 -13 19
-35 -13 -36 -17 -12 -35 15 -12 14 -13 -11 -4 -20 7 -26 7 -21 -1 4 -8 0 -9
-15 -4 -13 4 -21 2 -21 -5 0 -6 -4 -8 -10 -5 -5 3 -10 2 -10 -4 0 -6 -7 -8
-15 -5 -8 4 -15 1 -15 -6 0 -7 -10 -23 -22 -35 l-23 -24 -10 26 c-10 23 -12
24 -24 9 -12 -14 -12 -16 5 -10 20 8 19 6 -10 -16 -11 -8 -17 -10 -13 -3 6 9
-7 11 -46 8 -62 -5 -123 -26 -95 -32 9 -2 26 1 37 7 13 6 21 7 21 1 0 -5 -15
-13 -32 -16 -18 -4 -37 -13 -41 -19 -5 -7 -7 -3 -5 9 2 15 -3 21 -24 23 -16 2
-28 -1 -28 -7 0 -6 8 -11 18 -12 9 0 -1 -7 -22 -15 -22 -8 -45 -12 -50 -10 -6
2 4 7 22 11 23 5 29 10 21 16 -7 4 -19 3 -26 -2 -6 -6 -27 -9 -45 -8 -18 2
-39 0 -46 -5 -22 -14 -372 -19 -468 -7 -89 11 -129 8 -119 -9 3 -5 -4 -6 -15
-3 -34 9 -33 23 1 23 25 0 30 3 22 11 -6 6 -22 9 -35 6 -13 -4 -27 -6 -32 -6
-5 1 -12 -5 -16 -11 -5 -8 -13 -9 -26 -2 -11 5 -30 15 -44 21 -21 9 -21 10 -2
5 12 -3 22 -1 22 4 0 10 -88 26 -130 24 -23 -2 -23 -1 -5 7 20 10 20 10 -1 10
-11 1 -26 -5 -33 -11 -11 -11 -13 -10 -8 5 6 15 3 17 -13 12 -16 -5 -19 -3
-14 10 5 11 2 16 -7 14 -8 -2 -25 3 -39 10 -13 8 -42 15 -65 17 -27 3 -47 11
-62 28 -14 17 -23 21 -26 13 -3 -7 -6 -4 -6 6 -1 18 -21 25 -21 7 0 -5 -5 -10
-11 -10 -5 0 -8 4 -4 9 7 12 -34 41 -57 41 -10 0 -18 7 -18 16 0 13 -3 14 -14
5 -10 -9 -16 -8 -26 4 -7 9 -8 15 -2 15 6 0 13 -6 15 -12 4 -10 6 -10 6 0 1
14 -67 47 -77 38 -3 -3 -19 9 -36 27 -17 17 -49 47 -71 66 -22 18 -39 36 -37
40 1 3 -4 6 -10 6 -15 0 -12 44 3 60 6 5 41 9 79 7 39 -1 70 0 70 3 0 3 -21
15 -47 26 -145 62 -155 71 -158 143 -2 34 -10 64 -23 82 -49 71 -109 174 -162
278 -19 38 -40 71 -46 73 -6 2 -19 -13 -28 -34 -8 -21 -30 -63 -47 -93 -17
-30 -36 -70 -41 -87 -6 -23 -15 -33 -28 -33 -10 0 -21 -4 -24 -9 -7 -11 -79
-3 -87 11 -5 7 -29 8 -73 3 -62 -6 -75 -13 -59 -29 11 -11 10 -46 -1 -46 -7 0
-7 -3 1 -8 6 -4 13 -16 15 -27 1 -10 11 -27 21 -37 9 -10 17 -25 17 -33 0 -8
4 -15 8 -15 4 0 13 -12 20 -27 12 -28 42 -73 82 -125 16 -21 18 -31 10 -53
-14 -37 -13 -41 10 -20 28 25 25 12 -3 -19 -13 -14 -27 -23 -30 -19 -4 3 -7 1
-7 -6 0 -7 -5 -9 -12 -5 -7 4 -10 3 -5 -1 4 -5 0 -16 -9 -26 -14 -15 -13 -20
4 -48 10 -17 22 -28 25 -24 4 3 7 1 7 -5 0 -19 42 -62 53 -55 6 3 7 1 3 -6 -5
-7 13 -33 45 -66 43 -43 56 -51 68 -42 11 10 13 8 7 -11 -5 -14 -3 -22 4 -22
6 0 39 -27 73 -61 122 -120 438 -308 647 -386 134 -50 233 -79 263 -77 15 2
25 -1 22 -6 -3 -5 16 -11 42 -15 27 -3 66 -10 88 -15 71 -16 109 -22 180 -28
96 -8 404 -8 495 0 131 12 320 46 320 58 0 3 15 4 33 2 17 -3 29 -1 24 3 -7 9
20 45 35 45 15 0 8 -18 -9 -24 -10 -3 -2 -4 17 -2 19 3 49 10 65 17 17 7 35
13 40 14 6 0 16 4 23 9 7 4 20 2 29 -6 13 -10 15 -10 9 0 -5 9 8 19 43 34 28
11 51 24 51 29 0 4 8 7 18 7 20 -1 134 51 190 86 20 13 59 36 87 51 27 16 44
30 37 33 -7 2 -9 8 -6 14 4 7 9 6 14 -2 8 -13 22 -6 113 59 36 25 45 36 35 43
-9 6 -5 7 10 3 21 -6 23 -4 17 17 -5 17 -4 19 4 8 8 -12 14 -11 35 9 13 13 22
29 20 36 -3 7 -1 16 5 20 7 3 8 0 5 -9 -11 -29 13 -16 54 28 22 24 44 41 47
38 4 -4 4 7 1 23 -4 20 -3 24 2 11 7 -16 14 -12 58 34 27 28 48 58 48 66 -1 7
2 11 7 9 4 -3 13 3 19 14 6 12 22 32 37 47 20 21 23 28 12 34 -7 5 -10 12 -6
16 10 11 -23 44 -45 44 -14 0 -18 8 -18 34 0 18 7 39 15 46 8 6 17 22 21 33 4
12 19 38 35 58 16 20 38 57 49 83 10 25 26 49 35 52 8 3 13 10 10 14 -3 5 -1
11 4 15 6 3 8 12 5 20 -3 7 0 22 6 32 11 17 11 17 6 0 -3 -11 -2 -15 4 -12 6
3 10 11 10 17 0 6 8 20 17 30 15 17 15 20 3 28 -19 12 -67 13 -74 1 -3 -5 -26
-6 -51 -3 -30 3 -45 1 -45 -7 0 -8 -15 -10 -52 -5 -66 8 -88 19 -88 44 0 11
-4 20 -10 20 -5 0 -10 6 -10 14 0 8 -15 40 -33 73 -17 32 -38 70 -46 86 -8 15
-17 27 -21 27 -4 0 -15 -19 -25 -42z m-2895 -403 c0 -2 -5 -7 -12 -11 -6 -4
-8 -3 -5 3 4 6 0 13 -8 17 -8 3 -15 1 -15 -4 0 -6 -5 -10 -11 -10 -8 0 -8 4 1
15 9 11 17 12 31 4 10 -5 19 -12 19 -14z m2871 -2 c13 -15 12 -15 -11 -3 -34
17 -36 20 -18 20 9 0 22 -7 29 -17z m-2956 -33 c-10 -11 -23 -20 -29 -20 -6 0
0 9 14 20 32 25 38 25 15 0z m3100 -94 c22 -22 32 -36 22 -33 -10 4 -23 7 -28
7 -6 0 -7 5 -4 11 8 12 -26 40 -39 32 -5 -4 -6 -1 -3 4 4 6 -8 24 -26 40 -19
16 -37 36 -42 44 -8 14 43 -31 120 -105z m-3035 64 c-24 -24 -30 -25 -30 -6 0
13 13 20 43 25 4 0 -2 -8 -13 -19z m2848 -5 c-3 -3 -9 2 -12 12 -6 14 -5 15 5
6 7 -7 10 -15 7 -18z m-2960 -7 c-8 -7 -25 -22 -38 -33 -20 -16 -19 -13 4 13
17 17 34 32 39 32 4 0 2 -6 -5 -12z m157 2 c3 -6 -1 -7 -9 -4 -18 7 -21 14 -7
14 6 0 13 -4 16 -10z m2775 3 c0 -11 -129 -147 -134 -142 -3 3 123 146 132
148 1 1 2 -2 2 -6z m-2726 -57 c19 -26 23 -37 14 -42 -7 -4 -10 -4 -7 0 4 4
-4 19 -17 33 -21 23 -31 43 -20 43 2 0 15 -15 30 -34z m-264 -10 c0 -2 -7 -7
-16 -10 -8 -3 -12 -2 -9 4 6 10 25 14 25 6z m-49 -35 c-8 -5 -10 -14 -6 -22 6
-11 5 -11 -5 -2 -14 12 -6 33 13 33 8 0 7 -3 -2 -9z m375 -22 c19 -22 19 -22
-3 -8 -13 8 -23 17 -23 21 0 12 6 9 26 -13z m2966 -13 c4 3 8 1 12 -4 8 -13
-28 -11 -36 2 -13 19 -8 32 6 14 7 -10 15 -15 18 -12z m-402 -16 c0 -5 -5 -10
-11 -10 -5 0 -7 5 -4 10 3 6 8 10 11 10 2 0 4 -4 4 -10z m467 -54 c0 -8 -6
-12 -14 -9 -7 3 -13 1 -13 -5 0 -6 6 -13 13 -15 7 -3 5 -6 -5 -6 -31 -2 -17
36 18 49 0 0 1 -6 1 -14z m-3472 -26 c3 -6 -1 -7 -9 -4 -18 7 -21 14 -7 14 6
0 13 -4 16 -10z m500 -20 c-3 -5 -12 -10 -18 -10 -7 0 -6 4 3 10 19 12 23 12
15 0z m2405 6 c0 -11 -19 -15 -25 -6 -3 5 1 10 9 10 9 0 16 -2 16 -4z m-2470
-20 c0 -3 -4 -8 -10 -11 -5 -3 -10 -1 -10 4 0 6 5 11 10 11 6 0 10 -2 10 -4z
m2990 -9 c0 -2 -9 -14 -20 -27 -11 -13 -20 -17 -20 -10 0 7 8 19 18 26 18 14
22 16 22 11z m0 -40 c0 -2 -10 -12 -22 -23 l-23 -19 19 23 c18 21 26 27 26 19z
m-50 -53 c0 -8 -5 -12 -10 -9 -6 4 -8 11 -5 16 9 14 15 11 15 -7z m-2590 -24
c13 -8 13 -10 -2 -10 -9 0 -20 5 -23 10 -8 13 5 13 25 0z m-132 -71 c3 -11 2
-11 -7 1 -10 13 -12 13 -21 0 -5 -8 -10 -10 -10 -4 0 27 31 30 38 3z m338 -24
c10 -8 14 -15 7 -15 -6 0 -15 5 -18 10 -4 6 -16 8 -28 5 -17 -5 -19 -4 -7 4
20 14 23 14 46 -4z m2289 -5 c-3 -5 -12 -10 -18 -10 -7 0 -6 4 3 10 19 12 23
12 15 0z m-845 -18 c0 -4 -9 -13 -20 -20 -24 -15 -26 -9 -4 12 17 18 24 20 24
8z m-165 -42 c3 -5 -1 -10 -9 -10 -9 0 -16 5 -16 10 0 6 4 10 9 10 6 0 13 -4
16 -10z m-1082 -7 c-7 -2 -19 -2 -25 0 -7 3 -2 5 12 5 14 0 19 -2 13 -5z
m1333 -50 c-7 -7 -26 7 -26 19 0 6 6 6 15 -2 9 -7 13 -15 11 -17z m-2191 8
c-3 -5 2 -17 11 -25 8 -9 11 -16 5 -16 -6 0 -15 9 -21 19 -13 25 -13 31 1 31
5 0 8 -4 4 -9z m818 2 c-7 -2 -21 -2 -30 0 -10 3 -4 5 12 5 17 0 24 -2 18 -5z
m861 -12 c3 -5 -6 -8 -19 -8 -14 0 -25 3 -25 8 0 5 9 9 19 9 11 0 22 -4 25 -9z
m-509 -11 c-3 -5 -12 -7 -20 -3 -21 7 -19 13 6 13 11 0 18 -4 14 -10z m195
-10 c39 -6 23 -7 -55 -3 -60 3 -113 8 -118 12 -8 8 93 3 173 -9z m220 11 c0
-5 -29 -11 -65 -13 -74 -3 -90 9 -17 15 26 2 55 4 65 5 9 1 17 -2 17 -7z m335
-1 c3 -5 1 -10 -4 -10 -6 0 -11 5 -11 10 0 6 2 10 4 10 3 0 8 -4 11 -10z m95
-4 c0 -3 -4 -8 -10 -11 -5 -3 -10 -1 -10 4 0 6 5 11 10 11 6 0 10 -2 10 -4z
m146 -13 c-3 -8 -6 -18 -6 -23 0 -4 -18 -10 -39 -14 -21 -3 -41 -13 -45 -21
-4 -12 5 -15 49 -15 29 0 57 -5 60 -11 4 -6 13 -8 20 -5 8 3 19 -3 27 -12 11
-15 11 -16 -3 -4 -15 11 -17 8 -21 -25 -3 -21 0 -41 6 -45 6 -4 2 -7 -9 -7
-11 1 -39 -6 -63 -15 -32 -12 -48 -13 -62 -6 -34 18 -20 45 23 47 36 1 57 10
57 23 0 7 -15 9 -43 5 -36 -6 -46 -3 -70 19 -15 14 -27 33 -27 44 0 24 49 69
80 74 60 8 71 6 66 -9z m-131 -13 c-3 -5 -12 -10 -18 -10 -7 0 -6 4 3 10 19
12 23 12 15 0z m-1339 -16 c-20 -19 -21 -31 -2 -15 13 11 121 12 110 2 -2 -2
3 -13 12 -23 14 -14 14 -20 4 -33 -12 -14 -15 -14 -36 0 -24 16 -64 20 -64 8
0 -5 18 -20 39 -35 30 -21 40 -36 43 -62 3 -28 0 -36 -16 -40 -11 -3 -18 -8
-14 -11 9 -10 36 6 53 32 16 23 15 26 -2 38 -16 13 -16 14 9 9 21 -3 31 1 44
21 13 20 14 29 5 38 -16 16 -14 23 11 24 17 2 19 0 8 -7 -8 -5 -11 -12 -7 -16
4 -4 15 0 25 9 20 18 37 23 28 8 -3 -5 0 -11 8 -14 8 -3 21 -44 32 -106 25
-137 35 -134 53 18 10 78 27 103 49 74 6 -9 12 -25 12 -35 0 -10 5 -18 10 -18
6 0 10 -4 10 -10 0 -5 -7 -10 -15 -10 -8 0 -15 -6 -15 -12 0 -7 -3 -30 -7 -52
l-6 -38 46 3 c46 4 66 -9 51 -32 -3 -5 -1 -9 4 -9 6 0 13 -7 16 -16 5 -13 4
-14 -7 -6 -20 17 -160 32 -169 18 -5 -8 -8 -7 -8 2 0 13 -26 17 -33 5 -2 -5
-3 -3 -1 3 1 6 -7 16 -17 22 -10 7 -18 17 -16 24 1 6 -17 17 -40 24 -40 12
-44 11 -54 -7 -10 -20 -47 -23 -60 -5 -4 5 -27 12 -50 16 -24 4 -53 11 -63 15
-14 6 -17 5 -12 -3 4 -7 2 -12 -4 -12 -6 0 -10 8 -8 18 2 11 -3 16 -14 14 -9
-1 -19 2 -23 8 -3 5 0 7 8 4 8 -3 14 2 15 11 5 45 4 44 26 32 12 -6 24 -10 29
-9 4 1 6 -3 5 -9 -4 -17 39 -31 46 -14 5 13 -38 48 -59 48 -7 0 -11 21 -11 51
1 52 9 76 27 76 6 0 3 -7 -5 -16z m-546 2 c0 -3 -4 -8 -10 -11 -5 -3 -10 -1
-10 4 0 6 5 11 10 11 6 0 10 -2 10 -4z m687 -16 c-1 -11 -5 -20 -9 -20 -10 0
-10 4 -2 24 8 22 13 20 11 -4z m803 10 c0 -5 -2 -10 -4 -10 -3 0 -8 5 -11 10
-3 6 -1 10 4 10 6 0 11 -4 11 -10z m-740 -4 c0 -2 -7 -7 -16 -10 -8 -3 -12 -2
-9 4 6 10 25 14 25 6z m1124 -72 c11 -30 6 -91 -9 -104 -8 -7 -15 -17 -15 -23
0 -5 9 -2 20 8 18 17 20 17 14 2 -3 -9 -9 -17 -13 -18 -3 0 -15 -3 -26 -5 -76
-17 -111 -15 -137 5 -15 12 -32 38 -39 58 -10 31 -9 41 6 69 16 29 78 72 98
66 4 -1 7 2 7 8 0 14 87 -47 94 -66z m-1074 62 c0 -2 -7 -7 -16 -10 -8 -3 -12
-2 -9 4 6 10 25 14 25 6z m890 -11 c11 -13 10 -14 -4 -9 -9 3 -16 10 -16 15 0
13 6 11 20 -6z m850 0 c11 -13 10 -14 -4 -9 -9 3 -16 10 -16 15 0 13 6 11 20
-6z m-960 -25 c0 -5 -5 -10 -11 -10 -5 0 -7 5 -4 10 3 6 8 10 11 10 2 0 4 -4
4 -10z m-865 -29 c-6 -5 -25 10 -25 20 0 5 6 4 14 -3 8 -7 12 -15 11 -17z
m900 19 c3 -5 1 -10 -4 -10 -6 0 -11 5 -11 10 0 6 2 10 4 10 3 0 8 -4 11 -10z
m-432 -14 c4 -10 0 -12 -14 -9 -10 3 -16 9 -13 14 8 13 21 11 27 -5z m432 -16
c51 -31 61 -100 21 -147 -12 -15 -21 -35 -19 -43 4 -12 3 -13 -5 -1 -8 11 -19
11 -61 1 -28 -7 -57 -10 -64 -7 -8 3 -19 37 -26 79 -7 40 -14 85 -17 100 -6
30 5 34 90 37 33 1 59 -5 81 -19z m45 5 c0 -8 -2 -15 -4 -15 -2 0 -6 7 -10 15
-3 8 -1 15 4 15 6 0 10 -7 10 -15z m-400 -5 c0 -5 -5 -10 -11 -10 -5 0 -7 5
-4 10 3 6 8 10 11 10 2 0 4 -4 4 -10z m1134 -11 c-3 -5 -10 -7 -15 -3 -5 3 -7
10 -3 15 3 5 10 7 15 3 5 -3 7 -10 3 -15z m-1679 1 c-3 -5 -12 -10 -18 -10 -7
0 -6 4 3 10 19 12 23 12 15 0z m497 -4 c7 4 8 2 4 -4 -4 -7 -2 -12 3 -12 16 0
13 -19 -4 -37 -11 -11 -19 -12 -29 -4 -7 6 -29 10 -50 9 -48 -2 -65 -31 -45
-74 11 -22 22 -30 47 -32 31 -3 32 -2 32 32 0 33 2 36 30 36 28 0 30 -2 30
-37 0 -47 -8 -59 -43 -72 -69 -27 -142 8 -153 72 -13 82 49 143 128 125 22 -4
44 -5 50 -2z m155 -12 c3 -8 10 -11 16 -7 6 3 7 1 3 -6 -9 -14 55 -132 67
-124 5 3 6 -4 2 -17 -6 -17 -4 -21 6 -15 9 5 8 1 -2 -11 -9 -10 -14 -25 -12
-32 4 -12 1 -12 -18 -2 -33 17 -37 22 -15 18 10 -1 21 3 23 10 3 7 -1 10 -10
6 -8 -3 -18 0 -22 5 -3 6 -10 9 -15 6 -5 -3 -12 0 -16 6 -4 8 -3 9 4 5 7 -4
12 -2 12 3 0 6 -20 11 -43 11 -37 0 -46 -4 -56 -26 -9 -21 -17 -25 -36 -21
-21 3 -23 2 -14 -10 10 -11 8 -12 -5 -7 -9 4 -15 9 -14 13 2 3 10 20 17 36 7
17 19 44 26 60 7 17 21 51 30 76 15 41 19 45 42 41 13 -2 27 -11 30 -18z m538
16 c3 -5 1 -10 -4 -10 -6 0 -11 5 -11 10 0 6 2 10 4 10 3 0 8 -4 11 -10z
m-850 -10 c-3 -5 -12 -10 -18 -10 -7 0 -6 4 3 10 19 12 23 12 15 0z m-952 -21
l22 -21 -22 11 c-12 6 -25 16 -28 21 -11 17 5 11 28 -11z m777 -12 c0 -4 -6
-2 -14 5 -8 7 -12 17 -9 22 5 8 23 -12 23 -27z m383 12 c-4 -15 -9 -17 -17 -9
-8 8 -7 13 4 20 8 5 16 10 17 10 0 0 -1 -9 -4 -21z m-1109 -15 c5 -14 4 -15
-9 -4 -17 14 -19 20 -6 20 5 0 12 -7 15 -16z m840 0 c3 -8 2 -12 -4 -9 -6 3
-10 10 -10 16 0 14 7 11 14 -7z m441 -13 c3 -5 1 -12 -5 -16 -5 -3 -10 1 -10
9 0 18 6 21 15 7z m-564 -28 c-8 -15 -10 -15 -11 -2 0 17 10 32 18 25 2 -3 -1
-13 -7 -23z m109 17 c0 -5 -5 -10 -11 -10 -5 0 -7 5 -4 10 3 6 8 10 11 10 2 0
4 -4 4 -10z m180 0 c8 -5 11 -10 5 -10 -5 0 -17 5 -25 10 -8 5 -10 10 -5 10 6
0 17 -5 25 -10z m-30 -10 c13 -8 13 -10 -2 -10 -11 0 -15 -5 -12 -14 3 -8 1
-16 -3 -19 -5 -3 -10 8 -11 24 -2 31 4 35 28 19z m128 -13 c2 -9 -2 -17 -8
-17 -6 0 -8 5 -4 11 3 6 0 16 -7 21 -12 8 -11 9 1 5 8 -2 16 -11 18 -20z m659
-12 c-4 -8 -11 -15 -17 -15 -6 0 -6 7 2 20 14 22 24 19 15 -5z m103 15 c0 -5
-4 -10 -10 -10 -5 0 -10 5 -10 10 0 6 5 10 10 10 6 0 10 -4 10 -10z m-1610
-40 c0 -15 -29 -19 -40 -5 -8 10 -8 14 2 18 16 5 38 -2 38 -13z m550 16 c0 -3
-4 -8 -10 -11 -5 -3 -10 -1 -10 4 0 6 5 11 10 11 6 0 10 -2 10 -4z m487 -18
c-3 -8 -6 -5 -6 6 -1 11 2 17 5 13 3 -3 4 -12 1 -19z m253 7 c11 -13 10 -14
-4 -9 -9 3 -16 10 -16 15 0 13 6 11 20 -6z m-989 -18 c-10 -9 -11 -8 -5 6 3
10 9 15 12 12 3 -3 0 -11 -7 -18z m-111 3 c0 -5 -2 -10 -4 -10 -3 0 -8 5 -11
10 -3 6 -1 10 4 10 6 0 11 -4 11 -10z m170 -4 c-14 -14 -39 -16 -34 -2 2 6 13
12 24 12 13 0 16 -4 10 -10z m1077 0 c0 -7 -7 -12 -16 -11 -9 2 -18 4 -21 4
-6 2 23 21 31 21 3 0 6 -6 6 -14z m-694 -3 c-7 -2 -19 -2 -25 0 -7 3 -2 5 12
5 14 0 19 -2 13 -5z m-472 -20 c13 -17 13 -17 -6 -3 -11 8 -22 16 -24 17 -2 2
0 3 6 3 6 0 17 -8 24 -17z m650 -16 c-6 -8 -7 -18 -3 -22 4 -5 1 -5 -5 -1 -19
10 -16 36 3 36 13 0 14 -3 5 -13z m-654 -13 c-3 -3 -12 -4 -19 -1 -8 3 -5 6 6
6 11 1 17 -2 13 -5z m923 -4 c0 -5 -2 -10 -4 -10 -3 0 -8 5 -11 10 -3 6 -1 10
4 10 6 0 11 -4 11 -10z m-1103 -6 c-3 -3 -12 -4 -19 -1 -8 3 -5 6 6 6 11 1 17
-2 13 -5z m588 -4 c3 -6 -1 -7 -9 -4 -18 7 -21 14 -7 14 6 0 13 -4 16 -10z
m800 0 c-3 -5 -11 -10 -16 -10 -6 0 -7 5 -4 10 3 6 11 10 16 10 6 0 7 -4 4
-10z m-601 -25 c-4 -8 -11 -15 -16 -15 -6 0 -5 6 2 15 7 8 14 15 16 15 2 0 1
-7 -2 -15z m663 9 c-3 -3 -12 -4 -19 -1 -8 3 -5 6 6 6 11 1 17 -2 13 -5z
m-797 -24 c0 -5 -4 -10 -10 -10 -5 0 -10 5 -10 10 0 6 5 10 10 10 6 0 10 -4
10 -10z"/>
<path d="M2416 415 c-16 -24 -16 -25 7 -25 20 0 23 4 19 25 -2 14 -6 25 -7 25
-1 0 -10 -11 -19 -25z"/>
<path d="M3390 471 c-14 -26 -13 -64 2 -79 16 -16 60 -15 82 1 24 18 19 83 -6
81 -10 -1 -15 2 -12 7 3 5 -8 9 -25 9 -20 0 -34 -7 -41 -19z m50 -12 c0 -6 -4
-7 -10 -4 -5 3 -10 11 -10 16 0 6 5 7 10 4 6 -3 10 -11 10 -16z"/>
<path d="M3174 425 c-4 -8 -3 -36 1 -61 5 -35 10 -44 22 -40 8 3 21 6 28 6 27
0 46 31 39 64 -3 17 -12 34 -18 38 -20 13 -66 9 -72 -7z m70 -16 c-3 -6 -1
-15 6 -19 8 -5 3 -7 -13 -7 -23 0 -24 1 -9 18 18 21 27 25 16 8z m-40 -37 c2
-4 1 -14 -3 -21 -6 -9 -10 -7 -14 8 -5 20 7 29 17 13z"/>
<path d="M2987 379 c-10 -35 -9 -38 13 -32 24 6 25 13 7 38 -13 17 -14 17 -20
-6z"/>
<path d="M970 1475 c12 -51 22 -57 17 -10 -2 21 -9 41 -15 43 -7 2 -7 -9 -2
-33z"/>
<path d="M2754 1194 c3 -9 6 -33 6 -55 0 -47 18 -54 105 -42 l58 8 13 45 c8
25 14 48 14 53 0 4 -45 7 -101 7 -88 0 -100 -2 -95 -16z"/>
<path d="M2974 1155 c-10 -30 -15 -58 -11 -61 3 -4 18 -4 32 0 23 6 25 11 25
61 0 75 -23 75 -46 0z"/>
<path d="M2891 998 c-37 -117 -40 -133 -22 -133 8 0 24 33 41 85 41 130 43
140 26 140 -10 0 -25 -31 -45 -92z"/>
<path d="M1780 966 c0 -2 7 -7 16 -10 8 -3 12 -2 9 4 -6 10 -25 14 -25 6z"/>
<path d="M4607 843 c-4 -3 -7 -11 -7 -17 0 -6 5 -5 12 2 6 6 9 14 7 17 -3 3
-9 2 -12 -2z"/>
<path d="M4509 733 c-13 -16 -12 -17 4 -4 9 7 17 15 17 17 0 8 -8 3 -21 -13z"/>
<path d="M2460 660 c0 -5 5 -10 10 -10 6 0 10 5 10 10 0 6 -4 10 -10 10 -5 0
-10 -4 -10 -10z"/>
<path d="M1795 360 c3 -5 8 -10 11 -10 2 0 4 5 4 10 0 6 -5 10 -11 10 -5 0 -7
-4 -4 -10z"/>
<path d="M2370 150 c0 -5 5 -10 11 -10 5 0 7 5 4 10 -3 6 -8 10 -11 10 -2 0
-4 -4 -4 -10z"/>
<path d="M3355 140 c-3 -5 -1 -10 4 -10 6 0 11 5 11 10 0 6 -2 10 -4 10 -3 0
-8 -4 -11 -10z"/>
<path d="M2488 123 c6 -2 18 -2 25 0 6 3 1 5 -13 5 -14 0 -19 -2 -12 -5z"/>
<path d="M3078 103 c12 -2 32 -2 45 0 12 2 2 4 -23 4 -25 0 -35 -2 -22 -4z"/>
<path d="M2805 90 c3 -5 12 -10 20 -10 8 0 17 5 20 10 4 6 -5 10 -20 10 -15 0
-24 -4 -20 -10z"/>
</g>
</svg>
